<svg viewBox="0 0 1000 250" xmlns="http://www.w3.org/2000/svg" role="img" aria-label="praetor dispatch lifecycle">
  <defs>
    <marker id="a" viewBox="0 0 10 10" refX="9" refY="5" markerWidth="7" markerHeight="7" orient="auto-start-reverse">
      <path d="M0,0 L10,5 L0,10 z" fill="#64748b"/>
    </marker>
    <marker id="g" viewBox="0 0 10 10" refX="9" refY="5" markerWidth="7" markerHeight="7" orient="auto-start-reverse">
      <path d="M0,0 L10,5 L0,10 z" fill="#34d399"/>
    </marker>
    <marker id="r" viewBox="0 0 10 10" refX="9" refY="5" markerWidth="7" markerHeight="7" orient="auto-start-reverse">
      <path d="M0,0 L10,5 L0,10 z" fill="#f77085"/>
    </marker>
  </defs>
  <rect width="1000" height="250" rx="12" fill="#0b1220"/>
  <rect x="0" y="0" width="1000" height="3" fill="#7c6a46"/>

  <!-- row 1 boxes -->
  <g font-family="Helvetica,Arial,sans-serif" font-size="13.5" text-anchor="middle">
    <rect x="28"  y="52" width="150" height="52" rx="8" fill="#131b2e" stroke="#3a3f4f"/>
    <text x="103" y="74" fill="#e2e8f0" font-weight="bold">you summon it once</text>
    <text x="103" y="92" fill="#94a3b8" font-size="11.5">dormant before · announced after</text>

    <rect x="216" y="52" width="150" height="52" rx="8" fill="#131b2e" stroke="#3a3f4f"/>
    <text x="291" y="74" fill="#e2e8f0" font-weight="bold">bar frozen in git</text>
    <text x="291" y="92" fill="#94a3b8" font-size="11.5">before Codex exists</text>

    <rect x="404" y="52" width="150" height="52" rx="8" fill="#131b2e" stroke="#3a3f4f"/>
    <text x="479" y="74" fill="#e2e8f0" font-weight="bold">codex executes</text>
    <text x="479" y="92" fill="#94a3b8" font-size="11.5">sandboxed · no commits</text>

    <rect x="592" y="52" width="150" height="52" rx="8" fill="#131b2e" stroke="#7c6a46" stroke-width="2"/>
    <text x="667" y="74" fill="#f4f1e8" font-weight="bold">the judge</text>
    <text x="667" y="92" fill="#94a3b8" font-size="11.5">fresh context · binding</text>

    <rect x="812" y="52" width="160" height="52" rx="8" fill="#0f2419" stroke="#34d399"/>
    <text x="892" y="74" fill="#34d399" font-weight="bold">claude commits</text>
    <text x="892" y="92" fill="#94a3b8" font-size="11.5">merged with receipts</text>

    <!-- row 2: fail path -->
    <rect x="516" y="168" width="150" height="52" rx="8" fill="#2a1520" stroke="#f77085"/>
    <text x="591" y="190" fill="#f77085" font-weight="bold">≤ 2 retries</text>
    <text x="591" y="208" fill="#94a3b8" font-size="11.5">re-brief · same bar</text>

    <rect x="726" y="168" width="190" height="52" rx="8" fill="#2a1520" stroke="#f77085" stroke-width="2"/>
    <text x="821" y="190" fill="#f77085" font-weight="bold">loud takeover</text>
    <text x="821" y="208" fill="#94a3b8" font-size="11.5">Claude does it · tells you</text>
  </g>

  <!-- arrows row1 -->
  <g stroke="#64748b" stroke-width="1.6" fill="none">
    <line x1="178" y1="78" x2="212" y2="78" marker-end="url(#a)"/>
    <line x1="366" y1="78" x2="400" y2="78" marker-end="url(#a)"/>
    <line x1="554" y1="78" x2="588" y2="78" marker-end="url(#a)"/>
  </g>
  <!-- PASS -->
  <line x1="742" y1="78" x2="808" y2="78" stroke="#34d399" stroke-width="2" marker-end="url(#g)"/>
  <text x="775" y="66" fill="#34d399" font-family="Helvetica,Arial,sans-serif" font-size="12" font-weight="bold" text-anchor="middle">PASS</text>
  <!-- FAIL down -->
  <path d="M 667 104 L 667 140 L 591 140 L 591 164" stroke="#f77085" stroke-width="2" fill="none" marker-end="url(#r)"/>
  <text x="700" y="132" fill="#f77085" font-family="Helvetica,Arial,sans-serif" font-size="12" font-weight="bold" text-anchor="middle">FAIL</text>
  <!-- retry back up -->
  <path d="M 591 168 L 591 146 L 479 146 L 479 108" stroke="#64748b" stroke-width="1.4" stroke-dasharray="4 3" fill="none" marker-end="url(#a)"/>
  <!-- retries exhausted -->
  <line x1="666" y1="194" x2="722" y2="194" stroke="#f77085" stroke-width="2" marker-end="url(#r)"/>
  <text x="694" y="184" fill="#94a3b8" font-family="Helvetica,Arial,sans-serif" font-size="10.5" text-anchor="middle">×2</text>

  <text x="500" y="26" fill="#7c6a46" font-family="Helvetica,Arial,sans-serif" font-size="13" font-weight="bold" text-anchor="middle" letter-spacing="3">THE DISPATCH LIFECYCLE — NO SILENT-FAILURE PATH</text>
</svg>
