<svg viewBox="0 0 1000 432" xmlns="http://www.w3.org/2000/svg" role="img" aria-label="praetor dispatch lifecycle, including the legion fork">
  <defs>
    <marker id="a" viewBox="0 0 10 10" refX="9" refY="5" markerWidth="7" markerHeight="7" orient="auto-start-reverse">
      <path d="M0,0 L10,5 L0,10 z" fill="#64748b"/>
    </marker>
    <marker id="g" viewBox="0 0 10 10" refX="9" refY="5" markerWidth="7" markerHeight="7" orient="auto-start-reverse">
      <path d="M0,0 L10,5 L0,10 z" fill="#34d399"/>
    </marker>
    <marker id="r" viewBox="0 0 10 10" refX="9" refY="5" markerWidth="7" markerHeight="7" orient="auto-start-reverse">
      <path d="M0,0 L10,5 L0,10 z" fill="#f77085"/>
    </marker>
  </defs>
  <rect width="1000" height="432" rx="12" fill="#0b1220"/>
  <rect x="0" y="0" width="1000" height="3" fill="#7c6a46"/>

  <text x="500" y="26" fill="#7c6a46" font-family="Helvetica,Arial,sans-serif" font-size="13" font-weight="bold" text-anchor="middle" letter-spacing="3">THE DISPATCH LIFECYCLE — NO SILENT-FAILURE PATH</text>

  <!-- band 1: single dispatch -->
  <g font-family="Helvetica,Arial,sans-serif" font-size="13.5" text-anchor="middle">
    <rect x="28"  y="52" width="150" height="52" rx="8" fill="#131b2e" stroke="#3a3f4f"/>
    <text x="103" y="74" fill="#e2e8f0" font-weight="bold">you summon it once</text>
    <text x="103" y="92" fill="#94a3b8" font-size="11.5">dormant before · announced after</text>

    <rect x="216" y="52" width="150" height="52" rx="8" fill="#131b2e" stroke="#3a3f4f"/>
    <text x="291" y="74" fill="#e2e8f0" font-weight="bold">bar frozen in git</text>
    <text x="291" y="92" fill="#94a3b8" font-size="11.5">before Codex exists</text>

    <rect x="404" y="52" width="150" height="52" rx="8" fill="#131b2e" stroke="#3a3f4f"/>
    <text x="479" y="74" fill="#e2e8f0" font-weight="bold">codex executes</text>
    <text x="479" y="92" fill="#94a3b8" font-size="11.5">sandboxed · no commits</text>

    <rect x="592" y="52" width="150" height="52" rx="8" fill="#131b2e" stroke="#7c6a46" stroke-width="2"/>
    <text x="667" y="74" fill="#f4f1e8" font-weight="bold">the judge</text>
    <text x="667" y="92" fill="#94a3b8" font-size="11.5">fresh context · binding</text>

    <rect x="812" y="52" width="160" height="52" rx="8" fill="#0f2419" stroke="#34d399"/>
    <text x="892" y="74" fill="#34d399" font-weight="bold">claude commits</text>
    <text x="892" y="92" fill="#94a3b8" font-size="11.5">merged with receipts</text>

    <!-- fail row -->
    <rect x="516" y="168" width="150" height="52" rx="8" fill="#2a1520" stroke="#f77085"/>
    <text x="591" y="190" fill="#f77085" font-weight="bold">≤ 2 retries</text>
    <text x="591" y="208" fill="#94a3b8" font-size="11.5">re-brief · same bar</text>

    <rect x="726" y="168" width="190" height="52" rx="8" fill="#2a1520" stroke="#f77085" stroke-width="2"/>
    <text x="821" y="190" fill="#f77085" font-weight="bold">loud takeover</text>
    <text x="821" y="208" fill="#94a3b8" font-size="11.5">Claude does it · tells you</text>
  </g>

  <g stroke="#64748b" stroke-width="1.6" fill="none">
    <line x1="178" y1="78" x2="212" y2="78" marker-end="url(#a)"/>
    <line x1="366" y1="78" x2="400" y2="78" marker-end="url(#a)"/>
    <line x1="554" y1="78" x2="588" y2="78" marker-end="url(#a)"/>
  </g>
  <line x1="742" y1="78" x2="808" y2="78" stroke="#34d399" stroke-width="2" marker-end="url(#g)"/>
  <text x="775" y="66" fill="#34d399" font-family="Helvetica,Arial,sans-serif" font-size="12" font-weight="bold" text-anchor="middle">PASS</text>
  <path d="M 667 104 L 667 140 L 591 140 L 591 164" stroke="#f77085" stroke-width="2" fill="none" marker-end="url(#r)"/>
  <text x="700" y="132" fill="#f77085" font-family="Helvetica,Arial,sans-serif" font-size="12" font-weight="bold" text-anchor="middle">FAIL</text>
  <path d="M 591 168 L 591 146 L 479 146 L 479 108" stroke="#64748b" stroke-width="1.4" stroke-dasharray="4 3" fill="none" marker-end="url(#a)"/>
  <line x1="666" y1="194" x2="722" y2="194" stroke="#f77085" stroke-width="2" marker-end="url(#r)"/>
  <text x="694" y="184" fill="#94a3b8" font-family="Helvetica,Arial,sans-serif" font-size="10.5" text-anchor="middle">×2</text>

  <!-- legion band -->
  <text x="500" y="268" fill="#7c6a46" font-family="Helvetica,Arial,sans-serif" font-size="12" font-weight="bold" text-anchor="middle" letter-spacing="3">WHEN THE JOB SPLITS 2–5 WAYS — PRAETOR FORKS A LEGION, ON ITS OWN</text>

  <g font-family="Helvetica,Arial,sans-serif" font-size="13" text-anchor="middle">
    <rect x="28" y="292" width="170" height="52" rx="8" fill="#131b2e" stroke="#3a3f4f"/>
    <text x="113" y="313" fill="#e2e8f0" font-weight="bold">muster</text>
    <text x="113" y="331" fill="#94a3b8" font-size="11.5">manifests pairwise disjoint</text>

    <!-- stacked workers -->
    <rect x="228" y="280" width="170" height="52" rx="8" fill="#0e1526" stroke="#3a3f4f"/>
    <rect x="234" y="286" width="170" height="52" rx="8" fill="#0f1729" stroke="#3a3f4f"/>
    <rect x="240" y="292" width="170" height="52" rx="8" fill="#131b2e" stroke="#3a3f4f"/>
    <text x="325" y="313" fill="#e2e8f0" font-weight="bold">codex ×2–5</text>
    <text x="325" y="331" fill="#94a3b8" font-size="11.5">parallel git worktrees</text>

    <rect x="452" y="292" width="160" height="52" rx="8" fill="#131b2e" stroke="#7c6a46" stroke-width="2"/>
    <text x="532" y="313" fill="#f4f1e8" font-weight="bold">judge, per lane</text>
    <text x="532" y="331" fill="#94a3b8" font-size="11.5">manifest enforced</text>

    <rect x="654" y="292" width="140" height="52" rx="8" fill="#131b2e" stroke="#3a3f4f"/>
    <text x="724" y="313" fill="#e2e8f0" font-weight="bold">ordered merge</text>
    <text x="724" y="331" fill="#94a3b8" font-size="11.5">conflict = halt</text>

    <rect x="836" y="292" width="140" height="52" rx="8" fill="#0f2419" stroke="#34d399" stroke-width="2"/>
    <text x="906" y="313" fill="#34d399" font-weight="bold">integration judge</text>
    <text x="906" y="331" fill="#94a3b8" font-size="11.5">green together?</text>
  </g>

  <g stroke="#64748b" stroke-width="1.6" fill="none">
    <line x1="198" y1="318" x2="224" y2="318" marker-end="url(#a)"/>
    <line x1="410" y1="318" x2="448" y2="318" marker-end="url(#a)"/>
    <line x1="612" y1="318" x2="650" y2="318" marker-end="url(#a)"/>
    <line x1="794" y1="318" x2="832" y2="318" marker-end="url(#a)"/>
  </g>

  <text x="500" y="382" fill="#94a3b8" font-family="Helvetica,Arial,sans-serif" font-size="11.5" text-anchor="middle">each lane carries the full frozen-bar discipline · any merge conflict halts loud · no legion is done until the integration judge passes</text>
  <text x="500" y="404" fill="#34d399" font-family="Helvetica,Arial,sans-serif" font-size="12" font-weight="bold" text-anchor="middle">measured: 3 lanes, 2m08s wall vs 6m04s serial — 2.84×</text>

  <rect x="0" y="429" width="1000" height="3" fill="#7c6a46"/>
</svg>
